<svg width="791" height="382" viewBox="0 0 791 382" fill="none" xmlns="http://www.w3.org/2000/svg">
<path fill-rule="evenodd" clip-rule="evenodd" d="M761 223.188C761 302.034 702.045 352 639.815 352C606.127 352 576.648 337.331 559.804 312.577L548.704 346.958H496.171L496.16 32.0007L562.631 32V130.155C579.674 108.164 606.739 94.3762 639.348 94.3762C702.981 94.3762 761 144.343 761 223.188ZM556.529 222.73C556.529 261.236 586.943 292.407 626.714 292.407C665.549 292.407 696.431 261.694 696.431 222.73C696.431 183.765 665.549 153.052 626.714 153.052C586.943 153.052 556.529 184.224 556.529 222.73Z" fill="white"/>
<path d="M32.0108 346.959L176.543 346.958L196.66 284.156L98.4525 284.158L98.4417 32.0007H32L32.0108 346.959Z" fill="white"/>
<path fill-rule="evenodd" clip-rule="evenodd" d="M336.083 352C412.35 352 469.901 294.241 469.901 223.188C469.901 151.677 411.415 94.3762 336.083 94.3762C260.284 94.3762 202.734 151.677 202.734 223.188C202.734 294.241 260.284 352 336.083 352ZM336.552 291.949C297.715 291.949 267.303 261.236 267.303 222.73C267.303 184.224 297.715 153.511 336.552 153.511C374.918 153.511 405.799 184.224 405.799 222.73C405.799 261.236 374.918 291.949 336.552 291.949Z" fill="white"/>
</svg>
